<?xml version="1.0" encoding="utf-8" standalone="no"?>
<!DOCTYPE svg PUBLIC "-//W3C//DTD SVG 1.1//EN"
  "http://www.w3.org/Graphics/SVG/1.1/DTD/svg11.dtd">
<!-- Created with matplotlib (https://matplotlib.org/) -->
<svg height="345.6pt" version="1.1" viewBox="0 0 460.8 345.6" width="460.8pt" xmlns="http://www.w3.org/2000/svg" xmlns:xlink="http://www.w3.org/1999/xlink">
 <defs>
  <style type="text/css">
*{stroke-linecap:butt;stroke-linejoin:round;}
  </style>
 </defs>
 <g id="figure_1">
  <g id="patch_1">
   <path d="M 0 345.6 
L 460.8 345.6 
L 460.8 0 
L 0 0 
z
" style="fill:#ffffff;"/>
  </g>
  <g id="axes_1">
   <g id="patch_2">
    <path d="M 57.6 307.584 
L 414.72 307.584 
L 414.72 41.472 
L 57.6 41.472 
z
" style="fill:#ffffff;"/>
   </g>
   <g id="matplotlib.axis_1">
    <g id="xtick_1">
     <g id="line2d_1">
      <path clip-path="url(#pf8e87c27b1)" d="M 117.460325 307.584 
L 117.460325 41.472 
" style="fill:none;stroke:#cccccc;stroke-linecap:round;stroke-width:0.8;"/>
     </g>
     <g id="text_1">
      <!-- 1.45c -->
      <defs>
       <path d="M 37.25 0 
L 28.46875 0 
L 28.46875 56 
Q 25.296875 52.984375 20.140625 49.953125 
Q 14.984375 46.921875 10.890625 45.40625 
L 10.890625 53.90625 
Q 18.265625 57.375 23.78125 62.296875 
Q 29.296875 67.234375 31.59375 71.875 
L 37.25 71.875 
z
" id="ArialMT-49"/>
       <path d="M 9.078125 0 
L 9.078125 10.015625 
L 19.09375 10.015625 
L 19.09375 0 
z
" id="ArialMT-46"/>
       <path d="M 32.328125 0 
L 32.328125 17.140625 
L 1.265625 17.140625 
L 1.265625 25.203125 
L 33.9375 71.578125 
L 41.109375 71.578125 
L 41.109375 25.203125 
L 50.78125 25.203125 
L 50.78125 17.140625 
L 41.109375 17.140625 
L 41.109375 0 
z
M 32.328125 25.203125 
L 32.328125 57.46875 
L 9.90625 25.203125 
z
" id="ArialMT-52"/>
       <path d="M 4.15625 18.75 
L 13.375 19.53125 
Q 14.40625 12.796875 18.140625 9.390625 
Q 21.875 6 27.15625 6 
Q 33.5 6 37.890625 10.78125 
Q 42.28125 15.578125 42.28125 23.484375 
Q 42.28125 31 38.0625 35.34375 
Q 33.84375 39.703125 27 39.703125 
Q 22.75 39.703125 19.328125 37.765625 
Q 15.921875 35.84375 13.96875 32.765625 
L 5.71875 33.84375 
L 12.640625 70.609375 
L 48.25 70.609375 
L 48.25 62.203125 
L 19.671875 62.203125 
L 15.828125 42.96875 
Q 22.265625 47.46875 29.34375 47.46875 
Q 38.71875 47.46875 45.15625 40.96875 
Q 51.609375 34.46875 51.609375 24.265625 
Q 51.609375 14.546875 45.953125 7.46875 
Q 39.0625 -1.21875 27.15625 -1.21875 
Q 17.390625 -1.21875 11.203125 4.25 
Q 5.03125 9.71875 4.15625 18.75 
z
" id="ArialMT-53"/>
       <path d="M 40.4375 19 
L 49.078125 17.875 
Q 47.65625 8.9375 41.8125 3.875 
Q 35.984375 -1.171875 27.484375 -1.171875 
Q 16.84375 -1.171875 10.375 5.78125 
Q 3.90625 12.75 3.90625 25.734375 
Q 3.90625 34.125 6.6875 40.421875 
Q 9.46875 46.734375 15.15625 49.875 
Q 20.84375 53.03125 27.546875 53.03125 
Q 35.984375 53.03125 41.359375 48.75 
Q 46.734375 44.484375 48.25 36.625 
L 39.703125 35.296875 
Q 38.484375 40.53125 35.375 43.15625 
Q 32.28125 45.796875 27.875 45.796875 
Q 21.234375 45.796875 17.078125 41.03125 
Q 12.9375 36.28125 12.9375 25.984375 
Q 12.9375 15.53125 16.9375 10.796875 
Q 20.953125 6.0625 27.390625 6.0625 
Q 32.5625 6.0625 36.03125 9.234375 
Q 39.5 12.40625 40.4375 19 
z
" id="ArialMT-99"/>
      </defs>
      <g style="fill:#262626;" transform="translate(105.229856 321.741812)scale(0.1 -0.1)">
       <use xlink:href="#ArialMT-49"/>
       <use x="55.615234" xlink:href="#ArialMT-46"/>
       <use x="83.398438" xlink:href="#ArialMT-52"/>
       <use x="139.013672" xlink:href="#ArialMT-53"/>
       <use x="194.628906" xlink:href="#ArialMT-99"/>
      </g>
     </g>
    </g>
    <g id="xtick_2">
     <g id="line2d_2">
      <path clip-path="url(#pf8e87c27b1)" d="M 196.582894 307.584 
L 196.582894 41.472 
" style="fill:none;stroke:#cccccc;stroke-linecap:round;stroke-width:0.8;"/>
     </g>
     <g id="text_2">
      <!-- 1.45l -->
      <defs>
       <path d="M 6.390625 0 
L 6.390625 71.578125 
L 15.1875 71.578125 
L 15.1875 0 
z
" id="ArialMT-108"/>
      </defs>
      <g style="fill:#262626;" transform="translate(185.741488 321.741812)scale(0.1 -0.1)">
       <use xlink:href="#ArialMT-49"/>
       <use x="55.615234" xlink:href="#ArialMT-46"/>
       <use x="83.398438" xlink:href="#ArialMT-52"/>
       <use x="139.013672" xlink:href="#ArialMT-53"/>
       <use x="194.628906" xlink:href="#ArialMT-108"/>
      </g>
     </g>
    </g>
    <g id="xtick_3">
     <g id="line2d_3">
      <path clip-path="url(#pf8e87c27b1)" d="M 275.705463 307.584 
L 275.705463 41.472 
" style="fill:none;stroke:#cccccc;stroke-linecap:round;stroke-width:0.8;"/>
     </g>
     <g id="text_3">
      <!-- 2.9s -->
      <defs>
       <path d="M 50.34375 8.453125 
L 50.34375 0 
L 3.03125 0 
Q 2.9375 3.171875 4.046875 6.109375 
Q 5.859375 10.9375 9.828125 15.625 
Q 13.8125 20.3125 21.34375 26.46875 
Q 33.015625 36.03125 37.109375 41.625 
Q 41.21875 47.21875 41.21875 52.203125 
Q 41.21875 57.421875 37.46875 61 
Q 33.734375 64.59375 27.734375 64.59375 
Q 21.390625 64.59375 17.578125 60.78125 
Q 13.765625 56.984375 13.71875 50.25 
L 4.6875 51.171875 
Q 5.609375 61.28125 11.65625 66.578125 
Q 17.71875 71.875 27.9375 71.875 
Q 38.234375 71.875 44.234375 66.15625 
Q 50.25 60.453125 50.25 52 
Q 50.25 47.703125 48.484375 43.546875 
Q 46.734375 39.40625 42.65625 34.8125 
Q 38.578125 30.21875 29.109375 22.21875 
Q 21.1875 15.578125 18.9375 13.203125 
Q 16.703125 10.84375 15.234375 8.453125 
z
" id="ArialMT-50"/>
       <path d="M 5.46875 16.546875 
L 13.921875 17.328125 
Q 14.984375 11.375 18.015625 8.6875 
Q 21.046875 6 25.78125 6 
Q 29.828125 6 32.875 7.859375 
Q 35.9375 9.71875 37.890625 12.8125 
Q 39.84375 15.921875 41.15625 21.1875 
Q 42.484375 26.46875 42.484375 31.9375 
Q 42.484375 32.515625 42.4375 33.6875 
Q 39.796875 29.5 35.234375 26.875 
Q 30.671875 24.265625 25.34375 24.265625 
Q 16.453125 24.265625 10.296875 30.703125 
Q 4.15625 37.15625 4.15625 47.703125 
Q 4.15625 58.59375 10.578125 65.234375 
Q 17 71.875 26.65625 71.875 
Q 33.640625 71.875 39.421875 68.109375 
Q 45.21875 64.359375 48.21875 57.390625 
Q 51.21875 50.4375 51.21875 37.25 
Q 51.21875 23.53125 48.234375 15.40625 
Q 45.265625 7.28125 39.375 3.03125 
Q 33.5 -1.21875 25.59375 -1.21875 
Q 17.1875 -1.21875 11.859375 3.4375 
Q 6.546875 8.109375 5.46875 16.546875 
z
M 41.453125 48.140625 
Q 41.453125 55.71875 37.421875 60.15625 
Q 33.40625 64.59375 27.734375 64.59375 
Q 21.875 64.59375 17.53125 59.8125 
Q 13.1875 55.03125 13.1875 47.40625 
Q 13.1875 40.578125 17.3125 36.296875 
Q 21.4375 32.03125 27.484375 32.03125 
Q 33.59375 32.03125 37.515625 36.296875 
Q 41.453125 40.578125 41.453125 48.140625 
z
" id="ArialMT-57"/>
       <path d="M 3.078125 15.484375 
L 11.765625 16.84375 
Q 12.5 11.625 15.84375 8.84375 
Q 19.1875 6.0625 25.203125 6.0625 
Q 31.25 6.0625 34.171875 8.515625 
Q 37.109375 10.984375 37.109375 14.3125 
Q 37.109375 17.28125 34.515625 19 
Q 32.71875 20.171875 25.53125 21.96875 
Q 15.875 24.421875 12.140625 26.203125 
Q 8.40625 27.984375 6.46875 31.125 
Q 4.546875 34.28125 4.546875 38.09375 
Q 4.546875 41.546875 6.125 44.5 
Q 7.71875 47.46875 10.453125 49.421875 
Q 12.5 50.921875 16.03125 51.96875 
Q 19.578125 53.03125 23.640625 53.03125 
Q 29.734375 53.03125 34.34375 51.265625 
Q 38.96875 49.515625 41.15625 46.5 
Q 43.359375 43.5 44.1875 38.484375 
L 35.59375 37.3125 
Q 35.015625 41.3125 32.203125 43.546875 
Q 29.390625 45.796875 24.265625 45.796875 
Q 18.21875 45.796875 15.625 43.796875 
Q 13.03125 41.796875 13.03125 39.109375 
Q 13.03125 37.40625 14.109375 36.03125 
Q 15.1875 34.625 17.484375 33.6875 
Q 18.796875 33.203125 25.25 31.453125 
Q 34.578125 28.953125 38.25 27.359375 
Q 41.9375 25.78125 44.03125 22.75 
Q 46.140625 19.734375 46.140625 15.234375 
Q 46.140625 10.84375 43.578125 6.953125 
Q 41.015625 3.078125 36.171875 0.953125 
Q 31.34375 -1.171875 25.25 -1.171875 
Q 15.140625 -1.171875 9.84375 3.03125 
Q 4.546875 7.234375 3.078125 15.484375 
z
" id="ArialMT-115"/>
      </defs>
      <g style="fill:#262626;" transform="translate(266.255463 321.741812)scale(0.1 -0.1)">
       <use xlink:href="#ArialMT-50"/>
       <use x="55.615234" xlink:href="#ArialMT-46"/>
       <use x="83.398438" xlink:href="#ArialMT-57"/>
       <use x="139.013672" xlink:href="#ArialMT-115"/>
      </g>
     </g>
    </g>
    <g id="xtick_4">
     <g id="line2d_4">
      <path clip-path="url(#pf8e87c27b1)" d="M 354.828032 307.584 
L 354.828032 41.472 
" style="fill:none;stroke:#cccccc;stroke-linecap:round;stroke-width:0.8;"/>
     </g>
     <g id="text_4">
      <!-- 2.9c -->
      <g style="fill:#262626;" transform="translate(345.378032 321.741812)scale(0.1 -0.1)">
       <use xlink:href="#ArialMT-50"/>
       <use x="55.615234" xlink:href="#ArialMT-46"/>
       <use x="83.398438" xlink:href="#ArialMT-57"/>
       <use x="139.013672" xlink:href="#ArialMT-99"/>
      </g>
     </g>
    </g>
    <g id="text_5">
     <!-- P 123 scl -->
     <defs>
      <path d="M 7.71875 0 
L 7.71875 71.578125 
L 34.71875 71.578125 
Q 41.84375 71.578125 45.609375 70.90625 
Q 50.875 70.015625 54.4375 67.546875 
Q 58.015625 65.09375 60.1875 60.640625 
Q 62.359375 56.203125 62.359375 50.875 
Q 62.359375 41.75 56.546875 35.421875 
Q 50.734375 29.109375 35.546875 29.109375 
L 17.1875 29.109375 
L 17.1875 0 
z
M 17.1875 37.546875 
L 35.6875 37.546875 
Q 44.875 37.546875 48.734375 40.96875 
Q 52.59375 44.390625 52.59375 50.59375 
Q 52.59375 55.078125 50.3125 58.265625 
Q 48.046875 61.46875 44.34375 62.5 
Q 41.9375 63.140625 35.5 63.140625 
L 17.1875 63.140625 
z
" id="ArialMT-80"/>
      <path id="ArialMT-32"/>
      <path d="M 4.203125 18.890625 
L 12.984375 20.0625 
Q 14.5 12.59375 18.140625 9.296875 
Q 21.78125 6 27 6 
Q 33.203125 6 37.46875 10.296875 
Q 41.75 14.59375 41.75 20.953125 
Q 41.75 27 37.796875 30.921875 
Q 33.84375 34.859375 27.734375 34.859375 
Q 25.25 34.859375 21.53125 33.890625 
L 22.515625 41.609375 
Q 23.390625 41.5 23.921875 41.5 
Q 29.546875 41.5 34.03125 44.421875 
Q 38.53125 47.359375 38.53125 53.46875 
Q 38.53125 58.296875 35.25 61.46875 
Q 31.984375 64.65625 26.8125 64.65625 
Q 21.6875 64.65625 18.265625 61.421875 
Q 14.84375 58.203125 13.875 51.765625 
L 5.078125 53.328125 
Q 6.6875 62.15625 12.390625 67.015625 
Q 18.109375 71.875 26.609375 71.875 
Q 32.46875 71.875 37.390625 69.359375 
Q 42.328125 66.84375 44.9375 62.5 
Q 47.5625 58.15625 47.5625 53.265625 
Q 47.5625 48.640625 45.0625 44.828125 
Q 42.578125 41.015625 37.703125 38.765625 
Q 44.046875 37.3125 47.5625 32.6875 
Q 51.078125 28.078125 51.078125 21.140625 
Q 51.078125 11.765625 44.234375 5.25 
Q 37.40625 -1.265625 26.953125 -1.265625 
Q 17.53125 -1.265625 11.296875 4.34375 
Q 5.078125 9.96875 4.203125 18.890625 
z
" id="ArialMT-51"/>
     </defs>
     <g style="fill:#262626;" transform="translate(211.482188 336.318687)scale(0.12 -0.12)">
      <use xlink:href="#ArialMT-80"/>
      <use x="66.683594" xlink:href="#ArialMT-32"/>
      <use x="94.466797" xlink:href="#ArialMT-49"/>
      <use x="150.082031" xlink:href="#ArialMT-50"/>
      <use x="205.697266" xlink:href="#ArialMT-51"/>
      <use x="261.3125" xlink:href="#ArialMT-32"/>
      <use x="289.095703" xlink:href="#ArialMT-115"/>
      <use x="339.095703" xlink:href="#ArialMT-99"/>
      <use x="389.095703" xlink:href="#ArialMT-108"/>
     </g>
    </g>
   </g>
   <g id="matplotlib.axis_2">
    <g id="ytick_1">
     <g id="line2d_5">
      <path clip-path="url(#pf8e87c27b1)" d="M 57.6 305.299126 
L 414.72 305.299126 
" style="fill:none;stroke:#cccccc;stroke-linecap:round;stroke-width:0.8;"/>
     </g>
     <g id="text_6">
      <!-- −0.1 -->
      <defs>
       <path d="M 52.828125 31.203125 
L 5.5625 31.203125 
L 5.5625 39.40625 
L 52.828125 39.40625 
z
" id="ArialMT-8722"/>
       <path d="M 4.15625 35.296875 
Q 4.15625 48 6.765625 55.734375 
Q 9.375 63.484375 14.515625 67.671875 
Q 19.671875 71.875 27.484375 71.875 
Q 33.25 71.875 37.59375 69.546875 
Q 41.9375 67.234375 44.765625 62.859375 
Q 47.609375 58.5 49.21875 52.21875 
Q 50.828125 45.953125 50.828125 35.296875 
Q 50.828125 22.703125 48.234375 14.96875 
Q 45.65625 7.234375 40.5 3 
Q 35.359375 -1.21875 27.484375 -1.21875 
Q 17.140625 -1.21875 11.234375 6.203125 
Q 4.15625 15.140625 4.15625 35.296875 
z
M 13.1875 35.296875 
Q 13.1875 17.671875 17.3125 11.828125 
Q 21.4375 6 27.484375 6 
Q 33.546875 6 37.671875 11.859375 
Q 41.796875 17.71875 41.796875 35.296875 
Q 41.796875 52.984375 37.671875 58.78125 
Q 33.546875 64.59375 27.390625 64.59375 
Q 21.34375 64.59375 17.71875 59.46875 
Q 13.1875 52.9375 13.1875 35.296875 
z
" id="ArialMT-48"/>
      </defs>
      <g style="fill:#262626;" transform="translate(30.859375 308.878032)scale(0.1 -0.1)">
       <use xlink:href="#ArialMT-8722"/>
       <use x="58.398438" xlink:href="#ArialMT-48"/>
       <use x="114.013672" xlink:href="#ArialMT-46"/>
       <use x="141.796875" xlink:href="#ArialMT-49"/>
      </g>
     </g>
    </g>
    <g id="ytick_2">
     <g id="line2d_6">
      <path clip-path="url(#pf8e87c27b1)" d="M 57.6 267.770933 
L 414.72 267.770933 
" style="fill:none;stroke:#cccccc;stroke-linecap:round;stroke-width:0.8;"/>
     </g>
     <g id="text_7">
      <!-- 0.0 -->
      <g style="fill:#262626;" transform="translate(36.7 271.349839)scale(0.1 -0.1)">
       <use xlink:href="#ArialMT-48"/>
       <use x="55.615234" xlink:href="#ArialMT-46"/>
       <use x="83.398438" xlink:href="#ArialMT-48"/>
      </g>
     </g>
    </g>
    <g id="ytick_3">
     <g id="line2d_7">
      <path clip-path="url(#pf8e87c27b1)" d="M 57.6 230.24274 
L 414.72 230.24274 
" style="fill:none;stroke:#cccccc;stroke-linecap:round;stroke-width:0.8;"/>
     </g>
     <g id="text_8">
      <!-- 0.1 -->
      <g style="fill:#262626;" transform="translate(36.7 233.821646)scale(0.1 -0.1)">
       <use xlink:href="#ArialMT-48"/>
       <use x="55.615234" xlink:href="#ArialMT-46"/>
       <use x="83.398438" xlink:href="#ArialMT-49"/>
      </g>
     </g>
    </g>
    <g id="ytick_4">
     <g id="line2d_8">
      <path clip-path="url(#pf8e87c27b1)" d="M 57.6 192.714547 
L 414.72 192.714547 
" style="fill:none;stroke:#cccccc;stroke-linecap:round;stroke-width:0.8;"/>
     </g>
     <g id="text_9">
      <!-- 0.2 -->
      <g style="fill:#262626;" transform="translate(36.7 196.293453)scale(0.1 -0.1)">
       <use xlink:href="#ArialMT-48"/>
       <use x="55.615234" xlink:href="#ArialMT-46"/>
       <use x="83.398438" xlink:href="#ArialMT-50"/>
      </g>
     </g>
    </g>
    <g id="ytick_5">
     <g id="line2d_9">
      <path clip-path="url(#pf8e87c27b1)" d="M 57.6 155.186354 
L 414.72 155.186354 
" style="fill:none;stroke:#cccccc;stroke-linecap:round;stroke-width:0.8;"/>
     </g>
     <g id="text_10">
      <!-- 0.3 -->
      <g style="fill:#262626;" transform="translate(36.7 158.76526)scale(0.1 -0.1)">
       <use xlink:href="#ArialMT-48"/>
       <use x="55.615234" xlink:href="#ArialMT-46"/>
       <use x="83.398438" xlink:href="#ArialMT-51"/>
      </g>
     </g>
    </g>
    <g id="ytick_6">
     <g id="line2d_10">
      <path clip-path="url(#pf8e87c27b1)" d="M 57.6 117.658161 
L 414.72 117.658161 
" style="fill:none;stroke:#cccccc;stroke-linecap:round;stroke-width:0.8;"/>
     </g>
     <g id="text_11">
      <!-- 0.4 -->
      <g style="fill:#262626;" transform="translate(36.7 121.237067)scale(0.1 -0.1)">
       <use xlink:href="#ArialMT-48"/>
       <use x="55.615234" xlink:href="#ArialMT-46"/>
       <use x="83.398438" xlink:href="#ArialMT-52"/>
      </g>
     </g>
    </g>
    <g id="ytick_7">
     <g id="line2d_11">
      <path clip-path="url(#pf8e87c27b1)" d="M 57.6 80.129968 
L 414.72 80.129968 
" style="fill:none;stroke:#cccccc;stroke-linecap:round;stroke-width:0.8;"/>
     </g>
     <g id="text_12">
      <!-- 0.5 -->
      <g style="fill:#262626;" transform="translate(36.7 83.708874)scale(0.1 -0.1)">
       <use xlink:href="#ArialMT-48"/>
       <use x="55.615234" xlink:href="#ArialMT-46"/>
       <use x="83.398438" xlink:href="#ArialMT-53"/>
      </g>
     </g>
    </g>
    <g id="ytick_8">
     <g id="line2d_12">
      <path clip-path="url(#pf8e87c27b1)" d="M 57.6 42.601775 
L 414.72 42.601775 
" style="fill:none;stroke:#cccccc;stroke-linecap:round;stroke-width:0.8;"/>
     </g>
     <g id="text_13">
      <!-- 0.6 -->
      <defs>
       <path d="M 49.75 54.046875 
L 41.015625 53.375 
Q 39.84375 58.546875 37.703125 60.890625 
Q 34.125 64.65625 28.90625 64.65625 
Q 24.703125 64.65625 21.53125 62.3125 
Q 17.390625 59.28125 14.984375 53.46875 
Q 12.59375 47.65625 12.5 36.921875 
Q 15.671875 41.75 20.265625 44.09375 
Q 24.859375 46.4375 29.890625 46.4375 
Q 38.671875 46.4375 44.84375 39.96875 
Q 51.03125 33.5 51.03125 23.25 
Q 51.03125 16.5 48.125 10.71875 
Q 45.21875 4.9375 40.140625 1.859375 
Q 35.0625 -1.21875 28.609375 -1.21875 
Q 17.625 -1.21875 10.6875 6.859375 
Q 3.765625 14.9375 3.765625 33.5 
Q 3.765625 54.25 11.421875 63.671875 
Q 18.109375 71.875 29.4375 71.875 
Q 37.890625 71.875 43.28125 67.140625 
Q 48.6875 62.40625 49.75 54.046875 
z
M 13.875 23.1875 
Q 13.875 18.65625 15.796875 14.5 
Q 17.71875 10.359375 21.1875 8.171875 
Q 24.65625 6 28.46875 6 
Q 34.03125 6 38.03125 10.484375 
Q 42.046875 14.984375 42.046875 22.703125 
Q 42.046875 30.125 38.078125 34.390625 
Q 34.125 38.671875 28.125 38.671875 
Q 22.171875 38.671875 18.015625 34.390625 
Q 13.875 30.125 13.875 23.1875 
z
" id="ArialMT-54"/>
      </defs>
      <g style="fill:#262626;" transform="translate(36.7 46.180682)scale(0.1 -0.1)">
       <use xlink:href="#ArialMT-48"/>
       <use x="55.615234" xlink:href="#ArialMT-46"/>
       <use x="83.398438" xlink:href="#ArialMT-54"/>
      </g>
     </g>
    </g>
    <g id="text_14">
     <!-- Average beta power per pax -->
     <defs>
      <path d="M -0.140625 0 
L 27.34375 71.578125 
L 37.546875 71.578125 
L 66.84375 0 
L 56.0625 0 
L 47.703125 21.6875 
L 17.78125 21.6875 
L 9.90625 0 
z
M 20.515625 29.390625 
L 44.78125 29.390625 
L 37.3125 49.21875 
Q 33.890625 58.25 32.234375 64.0625 
Q 30.859375 57.171875 28.375 50.390625 
z
" id="ArialMT-65"/>
      <path d="M 21 0 
L 1.265625 51.859375 
L 10.546875 51.859375 
L 21.6875 20.796875 
Q 23.484375 15.765625 25 10.359375 
Q 26.171875 14.453125 28.265625 20.21875 
L 39.796875 51.859375 
L 48.828125 51.859375 
L 29.203125 0 
z
" id="ArialMT-118"/>
      <path d="M 42.09375 16.703125 
L 51.171875 15.578125 
Q 49.03125 7.625 43.21875 3.21875 
Q 37.40625 -1.171875 28.375 -1.171875 
Q 17 -1.171875 10.328125 5.828125 
Q 3.65625 12.84375 3.65625 25.484375 
Q 3.65625 38.578125 10.390625 45.796875 
Q 17.140625 53.03125 27.875 53.03125 
Q 38.28125 53.03125 44.875 45.953125 
Q 51.46875 38.875 51.46875 26.03125 
Q 51.46875 25.25 51.421875 23.6875 
L 12.75 23.6875 
Q 13.234375 15.140625 17.578125 10.59375 
Q 21.921875 6.0625 28.421875 6.0625 
Q 33.25 6.0625 36.671875 8.59375 
Q 40.09375 11.140625 42.09375 16.703125 
z
M 13.234375 30.90625 
L 42.1875 30.90625 
Q 41.609375 37.453125 38.875 40.71875 
Q 34.671875 45.796875 27.984375 45.796875 
Q 21.921875 45.796875 17.796875 41.75 
Q 13.671875 37.703125 13.234375 30.90625 
z
" id="ArialMT-101"/>
      <path d="M 6.5 0 
L 6.5 51.859375 
L 14.40625 51.859375 
L 14.40625 44 
Q 17.4375 49.515625 20 51.265625 
Q 22.5625 53.03125 25.640625 53.03125 
Q 30.078125 53.03125 34.671875 50.203125 
L 31.640625 42.046875 
Q 28.421875 43.953125 25.203125 43.953125 
Q 22.3125 43.953125 20.015625 42.21875 
Q 17.71875 40.484375 16.75 37.40625 
Q 15.28125 32.71875 15.28125 27.15625 
L 15.28125 0 
z
" id="ArialMT-114"/>
      <path d="M 40.4375 6.390625 
Q 35.546875 2.25 31.03125 0.53125 
Q 26.515625 -1.171875 21.34375 -1.171875 
Q 12.796875 -1.171875 8.203125 3 
Q 3.609375 7.171875 3.609375 13.671875 
Q 3.609375 17.484375 5.34375 20.625 
Q 7.078125 23.78125 9.890625 25.6875 
Q 12.703125 27.59375 16.21875 28.5625 
Q 18.796875 29.25 24.03125 29.890625 
Q 34.671875 31.15625 39.703125 32.90625 
Q 39.75 34.71875 39.75 35.203125 
Q 39.75 40.578125 37.25 42.78125 
Q 33.890625 45.75 27.25 45.75 
Q 21.046875 45.75 18.09375 43.578125 
Q 15.140625 41.40625 13.71875 35.890625 
L 5.125 37.0625 
Q 6.296875 42.578125 8.984375 45.96875 
Q 11.671875 49.359375 16.75 51.1875 
Q 21.828125 53.03125 28.515625 53.03125 
Q 35.15625 53.03125 39.296875 51.46875 
Q 43.453125 49.90625 45.40625 47.53125 
Q 47.359375 45.171875 48.140625 41.546875 
Q 48.578125 39.3125 48.578125 33.453125 
L 48.578125 21.734375 
Q 48.578125 9.46875 49.140625 6.21875 
Q 49.703125 2.984375 51.375 0 
L 42.1875 0 
Q 40.828125 2.734375 40.4375 6.390625 
z
M 39.703125 26.03125 
Q 34.90625 24.078125 25.34375 22.703125 
Q 19.921875 21.921875 17.671875 20.9375 
Q 15.4375 19.96875 14.203125 18.09375 
Q 12.984375 16.21875 12.984375 13.921875 
Q 12.984375 10.40625 15.640625 8.0625 
Q 18.3125 5.71875 23.4375 5.71875 
Q 28.515625 5.71875 32.46875 7.9375 
Q 36.421875 10.15625 38.28125 14.015625 
Q 39.703125 17 39.703125 22.796875 
z
" id="ArialMT-97"/>
      <path d="M 4.984375 -4.296875 
L 13.53125 -5.5625 
Q 14.0625 -9.515625 16.5 -11.328125 
Q 19.78125 -13.765625 25.4375 -13.765625 
Q 31.546875 -13.765625 34.859375 -11.328125 
Q 38.1875 -8.890625 39.359375 -4.5 
Q 40.046875 -1.8125 39.984375 6.78125 
Q 34.234375 0 25.640625 0 
Q 14.9375 0 9.078125 7.71875 
Q 3.21875 15.4375 3.21875 26.21875 
Q 3.21875 33.640625 5.90625 39.90625 
Q 8.59375 46.1875 13.6875 49.609375 
Q 18.796875 53.03125 25.6875 53.03125 
Q 34.859375 53.03125 40.828125 45.609375 
L 40.828125 51.859375 
L 48.921875 51.859375 
L 48.921875 7.03125 
Q 48.921875 -5.078125 46.453125 -10.125 
Q 44 -15.1875 38.640625 -18.109375 
Q 33.296875 -21.046875 25.484375 -21.046875 
Q 16.21875 -21.046875 10.5 -16.875 
Q 4.78125 -12.703125 4.984375 -4.296875 
z
M 12.25 26.859375 
Q 12.25 16.65625 16.296875 11.96875 
Q 20.359375 7.28125 26.46875 7.28125 
Q 32.515625 7.28125 36.609375 11.9375 
Q 40.71875 16.609375 40.71875 26.5625 
Q 40.71875 36.078125 36.5 40.90625 
Q 32.28125 45.75 26.3125 45.75 
Q 20.453125 45.75 16.34375 40.984375 
Q 12.25 36.234375 12.25 26.859375 
z
" id="ArialMT-103"/>
      <path d="M 14.703125 0 
L 6.546875 0 
L 6.546875 71.578125 
L 15.328125 71.578125 
L 15.328125 46.046875 
Q 20.90625 53.03125 29.546875 53.03125 
Q 34.328125 53.03125 38.59375 51.09375 
Q 42.875 49.171875 45.625 45.671875 
Q 48.390625 42.1875 49.953125 37.25 
Q 51.515625 32.328125 51.515625 26.703125 
Q 51.515625 13.375 44.921875 6.09375 
Q 38.328125 -1.171875 29.109375 -1.171875 
Q 19.921875 -1.171875 14.703125 6.5 
z
M 14.59375 26.3125 
Q 14.59375 17 17.140625 12.84375 
Q 21.296875 6.0625 28.375 6.0625 
Q 34.125 6.0625 38.328125 11.0625 
Q 42.53125 16.0625 42.53125 25.984375 
Q 42.53125 36.140625 38.5 40.96875 
Q 34.46875 45.796875 28.765625 45.796875 
Q 23 45.796875 18.796875 40.796875 
Q 14.59375 35.796875 14.59375 26.3125 
z
" id="ArialMT-98"/>
      <path d="M 25.78125 7.859375 
L 27.046875 0.09375 
Q 23.34375 -0.6875 20.40625 -0.6875 
Q 15.625 -0.6875 12.984375 0.828125 
Q 10.359375 2.34375 9.28125 4.8125 
Q 8.203125 7.28125 8.203125 15.1875 
L 8.203125 45.015625 
L 1.765625 45.015625 
L 1.765625 51.859375 
L 8.203125 51.859375 
L 8.203125 64.703125 
L 16.9375 69.96875 
L 16.9375 51.859375 
L 25.78125 51.859375 
L 25.78125 45.015625 
L 16.9375 45.015625 
L 16.9375 14.703125 
Q 16.9375 10.9375 17.40625 9.859375 
Q 17.875 8.796875 18.921875 8.15625 
Q 19.96875 7.515625 21.921875 7.515625 
Q 23.390625 7.515625 25.78125 7.859375 
z
" id="ArialMT-116"/>
      <path d="M 6.59375 -19.875 
L 6.59375 51.859375 
L 14.59375 51.859375 
L 14.59375 45.125 
Q 17.4375 49.078125 21 51.046875 
Q 24.5625 53.03125 29.640625 53.03125 
Q 36.28125 53.03125 41.359375 49.609375 
Q 46.4375 46.1875 49.015625 39.953125 
Q 51.609375 33.734375 51.609375 26.3125 
Q 51.609375 18.359375 48.75 11.984375 
Q 45.90625 5.609375 40.453125 2.21875 
Q 35.015625 -1.171875 29 -1.171875 
Q 24.609375 -1.171875 21.109375 0.6875 
Q 17.625 2.546875 15.375 5.375 
L 15.375 -19.875 
z
M 14.546875 25.640625 
Q 14.546875 15.625 18.59375 10.84375 
Q 22.65625 6.0625 28.421875 6.0625 
Q 34.28125 6.0625 38.453125 11.015625 
Q 42.625 15.96875 42.625 26.375 
Q 42.625 36.28125 38.546875 41.203125 
Q 34.46875 46.140625 28.8125 46.140625 
Q 23.1875 46.140625 18.859375 40.890625 
Q 14.546875 35.640625 14.546875 25.640625 
z
" id="ArialMT-112"/>
      <path d="M 3.328125 25.921875 
Q 3.328125 40.328125 11.328125 47.265625 
Q 18.015625 53.03125 27.640625 53.03125 
Q 38.328125 53.03125 45.109375 46.015625 
Q 51.90625 39.015625 51.90625 26.65625 
Q 51.90625 16.65625 48.90625 10.90625 
Q 45.90625 5.171875 40.15625 2 
Q 34.421875 -1.171875 27.640625 -1.171875 
Q 16.75 -1.171875 10.03125 5.8125 
Q 3.328125 12.796875 3.328125 25.921875 
z
M 12.359375 25.921875 
Q 12.359375 15.96875 16.703125 11.015625 
Q 21.046875 6.0625 27.640625 6.0625 
Q 34.1875 6.0625 38.53125 11.03125 
Q 42.875 16.015625 42.875 26.21875 
Q 42.875 35.84375 38.5 40.796875 
Q 34.125 45.75 27.640625 45.75 
Q 21.046875 45.75 16.703125 40.8125 
Q 12.359375 35.890625 12.359375 25.921875 
z
" id="ArialMT-111"/>
      <path d="M 16.15625 0 
L 0.296875 51.859375 
L 9.375 51.859375 
L 17.625 21.921875 
L 20.703125 10.796875 
Q 20.90625 11.625 23.390625 21.484375 
L 31.640625 51.859375 
L 40.671875 51.859375 
L 48.4375 21.78125 
L 51.03125 11.859375 
L 54 21.875 
L 62.890625 51.859375 
L 71.4375 51.859375 
L 55.21875 0 
L 46.09375 0 
L 37.84375 31.0625 
L 35.84375 39.890625 
L 25.34375 0 
z
" id="ArialMT-119"/>
      <path d="M 0.734375 0 
L 19.671875 26.953125 
L 2.15625 51.859375 
L 13.140625 51.859375 
L 21.09375 39.703125 
Q 23.34375 36.234375 24.703125 33.890625 
Q 26.859375 37.109375 28.65625 39.59375 
L 37.40625 51.859375 
L 47.90625 51.859375 
L 29.984375 27.4375 
L 49.265625 0 
L 38.484375 0 
L 27.828125 16.109375 
L 25 20.453125 
L 11.375 0 
z
" id="ArialMT-120"/>
     </defs>
     <g style="fill:#262626;" transform="translate(24.33375 249.902062)rotate(-90)scale(0.12 -0.12)">
      <use xlink:href="#ArialMT-65"/>
      <use x="66.683594" xlink:href="#ArialMT-118"/>
      <use x="116.683594" xlink:href="#ArialMT-101"/>
      <use x="172.298828" xlink:href="#ArialMT-114"/>
      <use x="205.599609" xlink:href="#ArialMT-97"/>
      <use x="261.214844" xlink:href="#ArialMT-103"/>
      <use x="316.830078" xlink:href="#ArialMT-101"/>
      <use x="372.445312" xlink:href="#ArialMT-32"/>
      <use x="400.228516" xlink:href="#ArialMT-98"/>
      <use x="455.84375" xlink:href="#ArialMT-101"/>
      <use x="511.458984" xlink:href="#ArialMT-116"/>
      <use x="539.242188" xlink:href="#ArialMT-97"/>
      <use x="594.857422" xlink:href="#ArialMT-32"/>
      <use x="622.640625" xlink:href="#ArialMT-112"/>
      <use x="678.255859" xlink:href="#ArialMT-111"/>
      <use x="733.871094" xlink:href="#ArialMT-119"/>
      <use x="806.087891" xlink:href="#ArialMT-101"/>
      <use x="861.703125" xlink:href="#ArialMT-114"/>
      <use x="895.003906" xlink:href="#ArialMT-32"/>
      <use x="922.787109" xlink:href="#ArialMT-112"/>
      <use x="978.402344" xlink:href="#ArialMT-101"/>
      <use x="1034.017578" xlink:href="#ArialMT-114"/>
      <use x="1067.318359" xlink:href="#ArialMT-32"/>
      <use x="1095.101562" xlink:href="#ArialMT-112"/>
      <use x="1150.716797" xlink:href="#ArialMT-97"/>
      <use x="1206.332031" xlink:href="#ArialMT-120"/>
     </g>
    </g>
   </g>
   <g id="PathCollection_1">
    <defs>
     <path d="M 0 3 
C 0.795609 3 1.55874 2.683901 2.12132 2.12132 
C 2.683901 1.55874 3 0.795609 3 0 
C 3 -0.795609 2.683901 -1.55874 2.12132 -2.12132 
C 1.55874 -2.683901 0.795609 -3 0 -3 
C -0.795609 -3 -1.55874 -2.683901 -2.12132 -2.12132 
C -2.683901 -1.55874 -3 -0.795609 -3 0 
C -3 0.795609 -2.683901 1.55874 -2.12132 2.12132 
C -1.55874 2.683901 -0.795609 3 0 3 
z
" id="m04962335d2" style="stroke:#cd5c5c;stroke-opacity:0.8;"/>
    </defs>
    <g clip-path="url(#pf8e87c27b1)">
     <use style="fill:#cd5c5c;fill-opacity:0.8;stroke:#cd5c5c;stroke-opacity:0.8;" x="81.660263" xlink:href="#m04962335d2" y="220.482738"/>
     <use style="fill:#cd5c5c;fill-opacity:0.8;stroke:#cd5c5c;stroke-opacity:0.8;" x="77.742841" xlink:href="#m04962335d2" y="250.900291"/>
     <use style="fill:#cd5c5c;fill-opacity:0.8;stroke:#cd5c5c;stroke-opacity:0.8;" x="75.090433" xlink:href="#m04962335d2" y="261.930064"/>
     <use style="fill:#cd5c5c;fill-opacity:0.8;stroke:#cd5c5c;stroke-opacity:0.8;" x="78.27357" xlink:href="#m04962335d2" y="227.132927"/>
     <use style="fill:#cd5c5c;fill-opacity:0.8;stroke:#cd5c5c;stroke-opacity:0.8;" x="74.072009" xlink:href="#m04962335d2" y="190.117932"/>
     <use style="fill:#cd5c5c;fill-opacity:0.8;stroke:#cd5c5c;stroke-opacity:0.8;" x="75.624792" xlink:href="#m04962335d2" y="255.307689"/>
     <use style="fill:#cd5c5c;fill-opacity:0.8;stroke:#cd5c5c;stroke-opacity:0.8;" x="79.743005" xlink:href="#m04962335d2" y="183.759495"/>
     <use style="fill:#cd5c5c;fill-opacity:0.8;stroke:#cd5c5c;stroke-opacity:0.8;" x="77.461307" xlink:href="#m04962335d2" y="260.869293"/>
     <use style="fill:#cd5c5c;fill-opacity:0.8;stroke:#cd5c5c;stroke-opacity:0.8;" x="75.130139" xlink:href="#m04962335d2" y="271.063866"/>
     <use style="fill:#cd5c5c;fill-opacity:0.8;stroke:#cd5c5c;stroke-opacity:0.8;" x="77.785289" xlink:href="#m04962335d2" y="226.273039"/>
     <use style="fill:#cd5c5c;fill-opacity:0.8;stroke:#cd5c5c;stroke-opacity:0.8;" x="78.662174" xlink:href="#m04962335d2" y="144.079461"/>
     <use style="fill:#cd5c5c;fill-opacity:0.8;stroke:#cd5c5c;stroke-opacity:0.8;" x="78.927285" xlink:href="#m04962335d2" y="237.757077"/>
     <use style="fill:#cd5c5c;fill-opacity:0.8;stroke:#cd5c5c;stroke-opacity:0.8;" x="78.839097" xlink:href="#m04962335d2" y="269.047224"/>
     <use style="fill:#cd5c5c;fill-opacity:0.8;stroke:#cd5c5c;stroke-opacity:0.8;" x="74.135722" xlink:href="#m04962335d2" y="194.940341"/>
     <use style="fill:#cd5c5c;fill-opacity:0.8;stroke:#cd5c5c;stroke-opacity:0.8;" x="80.653072" xlink:href="#m04962335d2" y="178.360568"/>
     <use style="fill:#cd5c5c;fill-opacity:0.8;stroke:#cd5c5c;stroke-opacity:0.8;" x="80.653941" xlink:href="#m04962335d2" y="209.904497"/>
     <use style="fill:#cd5c5c;fill-opacity:0.8;stroke:#cd5c5c;stroke-opacity:0.8;" x="74.171479" xlink:href="#m04962335d2" y="243.290282"/>
     <use style="fill:#cd5c5c;fill-opacity:0.8;stroke:#cd5c5c;stroke-opacity:0.8;" x="75.286243" xlink:href="#m04962335d2" y="222.850867"/>
     <use style="fill:#cd5c5c;fill-opacity:0.8;stroke:#cd5c5c;stroke-opacity:0.8;" x="120.150003" xlink:href="#m04962335d2" y="169.796313"/>
     <use style="fill:#cd5c5c;fill-opacity:0.8;stroke:#cd5c5c;stroke-opacity:0.8;" x="120.795151" xlink:href="#m04962335d2" y="221.229459"/>
     <use style="fill:#cd5c5c;fill-opacity:0.8;stroke:#cd5c5c;stroke-opacity:0.8;" x="120.228118" xlink:href="#m04962335d2" y="270.816501"/>
     <use style="fill:#cd5c5c;fill-opacity:0.8;stroke:#cd5c5c;stroke-opacity:0.8;" x="120.657427" xlink:href="#m04962335d2" y="209.372576"/>
     <use style="fill:#cd5c5c;fill-opacity:0.8;stroke:#cd5c5c;stroke-opacity:0.8;" x="118.220522" xlink:href="#m04962335d2" y="133.725881"/>
     <use style="fill:#cd5c5c;fill-opacity:0.8;stroke:#cd5c5c;stroke-opacity:0.8;" x="121.414237" xlink:href="#m04962335d2" y="237.484777"/>
     <use style="fill:#cd5c5c;fill-opacity:0.8;stroke:#cd5c5c;stroke-opacity:0.8;" x="117.622881" xlink:href="#m04962335d2" y="146.330727"/>
     <use style="fill:#cd5c5c;fill-opacity:0.8;stroke:#cd5c5c;stroke-opacity:0.8;" x="115.398837" xlink:href="#m04962335d2" y="277.920365"/>
     <use style="fill:#cd5c5c;fill-opacity:0.8;stroke:#cd5c5c;stroke-opacity:0.8;" x="116.011538" xlink:href="#m04962335d2" y="256.221709"/>
     <use style="fill:#cd5c5c;fill-opacity:0.8;stroke:#cd5c5c;stroke-opacity:0.8;" x="120.799608" xlink:href="#m04962335d2" y="206.390914"/>
     <use style="fill:#cd5c5c;fill-opacity:0.8;stroke:#cd5c5c;stroke-opacity:0.8;" x="115.329185" xlink:href="#m04962335d2" y="107.7916"/>
     <use style="fill:#cd5c5c;fill-opacity:0.8;stroke:#cd5c5c;stroke-opacity:0.8;" x="114.900517" xlink:href="#m04962335d2" y="188.320739"/>
     <use style="fill:#cd5c5c;fill-opacity:0.8;stroke:#cd5c5c;stroke-opacity:0.8;" x="115.308744" xlink:href="#m04962335d2" y="234.408722"/>
     <use style="fill:#cd5c5c;fill-opacity:0.8;stroke:#cd5c5c;stroke-opacity:0.8;" x="120.772977" xlink:href="#m04962335d2" y="161.639363"/>
     <use style="fill:#cd5c5c;fill-opacity:0.8;stroke:#cd5c5c;stroke-opacity:0.8;" x="117.662562" xlink:href="#m04962335d2" y="166.46275"/>
     <use style="fill:#cd5c5c;fill-opacity:0.8;stroke:#cd5c5c;stroke-opacity:0.8;" x="114.144603" xlink:href="#m04962335d2" y="170.233569"/>
     <use style="fill:#cd5c5c;fill-opacity:0.8;stroke:#cd5c5c;stroke-opacity:0.8;" x="114.342252" xlink:href="#m04962335d2" y="208.985207"/>
     <use style="fill:#cd5c5c;fill-opacity:0.8;stroke:#cd5c5c;stroke-opacity:0.8;" x="118.139438" xlink:href="#m04962335d2" y="226.604411"/>
     <use style="fill:#cd5c5c;fill-opacity:0.8;stroke:#cd5c5c;stroke-opacity:0.8;" x="160.826193" xlink:href="#m04962335d2" y="121.718193"/>
     <use style="fill:#cd5c5c;fill-opacity:0.8;stroke:#cd5c5c;stroke-opacity:0.8;" x="155.65628" xlink:href="#m04962335d2" y="230.112839"/>
     <use style="fill:#cd5c5c;fill-opacity:0.8;stroke:#cd5c5c;stroke-opacity:0.8;" x="153.686754" xlink:href="#m04962335d2" y="244.298405"/>
     <use style="fill:#cd5c5c;fill-opacity:0.8;stroke:#cd5c5c;stroke-opacity:0.8;" x="158.810553" xlink:href="#m04962335d2" y="187.050742"/>
     <use style="fill:#cd5c5c;fill-opacity:0.8;stroke:#cd5c5c;stroke-opacity:0.8;" x="153.882053" xlink:href="#m04962335d2" y="174.319877"/>
     <use style="fill:#cd5c5c;fill-opacity:0.8;stroke:#cd5c5c;stroke-opacity:0.8;" x="158.165919" xlink:href="#m04962335d2" y="245.711739"/>
     <use style="fill:#cd5c5c;fill-opacity:0.8;stroke:#cd5c5c;stroke-opacity:0.8;" x="157.060271" xlink:href="#m04962335d2" y="89.313238"/>
     <use style="fill:#cd5c5c;fill-opacity:0.8;stroke:#cd5c5c;stroke-opacity:0.8;" x="157.043731" xlink:href="#m04962335d2" y="246.478903"/>
     <use style="fill:#cd5c5c;fill-opacity:0.8;stroke:#cd5c5c;stroke-opacity:0.8;" x="158.911197" xlink:href="#m04962335d2" y="264.706633"/>
     <use style="fill:#cd5c5c;fill-opacity:0.8;stroke:#cd5c5c;stroke-opacity:0.8;" x="156.913357" xlink:href="#m04962335d2" y="234.433393"/>
     <use style="fill:#cd5c5c;fill-opacity:0.8;stroke:#cd5c5c;stroke-opacity:0.8;" x="153.323366" xlink:href="#m04962335d2" y="114.588405"/>
     <use style="fill:#cd5c5c;fill-opacity:0.8;stroke:#cd5c5c;stroke-opacity:0.8;" x="155.960225" xlink:href="#m04962335d2" y="196.230844"/>
     <use style="fill:#cd5c5c;fill-opacity:0.8;stroke:#cd5c5c;stroke-opacity:0.8;" x="153.588966" xlink:href="#m04962335d2" y="240.481767"/>
     <use style="fill:#cd5c5c;fill-opacity:0.8;stroke:#cd5c5c;stroke-opacity:0.8;" x="153.706047" xlink:href="#m04962335d2" y="165.140096"/>
     <use style="fill:#cd5c5c;fill-opacity:0.8;stroke:#cd5c5c;stroke-opacity:0.8;" x="160.210994" xlink:href="#m04962335d2" y="131.763684"/>
     <use style="fill:#cd5c5c;fill-opacity:0.8;stroke:#cd5c5c;stroke-opacity:0.8;" x="160.740813" xlink:href="#m04962335d2" y="166.538219"/>
     <use style="fill:#cd5c5c;fill-opacity:0.8;stroke:#cd5c5c;stroke-opacity:0.8;" x="156.081037" xlink:href="#m04962335d2" y="167.964329"/>
     <use style="fill:#cd5c5c;fill-opacity:0.8;stroke:#cd5c5c;stroke-opacity:0.8;" x="158.630274" xlink:href="#m04962335d2" y="210.793631"/>
     <use style="fill:#cd5c5c;fill-opacity:0.8;stroke:#cd5c5c;stroke-opacity:0.8;" x="195.134662" xlink:href="#m04962335d2" y="104.251557"/>
     <use style="fill:#cd5c5c;fill-opacity:0.8;stroke:#cd5c5c;stroke-opacity:0.8;" x="199.581455" xlink:href="#m04962335d2" y="203.085356"/>
     <use style="fill:#cd5c5c;fill-opacity:0.8;stroke:#cd5c5c;stroke-opacity:0.8;" x="193.611778" xlink:href="#m04962335d2" y="255.549527"/>
     <use style="fill:#cd5c5c;fill-opacity:0.8;stroke:#cd5c5c;stroke-opacity:0.8;" x="195.152423" xlink:href="#m04962335d2" y="200.623715"/>
     <use style="fill:#cd5c5c;fill-opacity:0.8;stroke:#cd5c5c;stroke-opacity:0.8;" x="198.99927" xlink:href="#m04962335d2" y="146.229387"/>
     <use style="fill:#cd5c5c;fill-opacity:0.8;stroke:#cd5c5c;stroke-opacity:0.8;" x="198.099903" xlink:href="#m04962335d2" y="240.672973"/>
     <use style="fill:#cd5c5c;fill-opacity:0.8;stroke:#cd5c5c;stroke-opacity:0.8;" x="198.804161" xlink:href="#m04962335d2" y="108.136105"/>
     <use style="fill:#cd5c5c;fill-opacity:0.8;stroke:#cd5c5c;stroke-opacity:0.8;" x="199.346954" xlink:href="#m04962335d2" y="208.530144"/>
     <use style="fill:#cd5c5c;fill-opacity:0.8;stroke:#cd5c5c;stroke-opacity:0.8;" x="194.858738" xlink:href="#m04962335d2" y="251.218863"/>
     <use style="fill:#cd5c5c;fill-opacity:0.8;stroke:#cd5c5c;stroke-opacity:0.8;" x="199.788395" xlink:href="#m04962335d2" y="165.730807"/>
     <use style="fill:#cd5c5c;fill-opacity:0.8;stroke:#cd5c5c;stroke-opacity:0.8;" x="198.102755" xlink:href="#m04962335d2" y="171.229063"/>
     <use style="fill:#cd5c5c;fill-opacity:0.8;stroke:#cd5c5c;stroke-opacity:0.8;" x="195.318664" xlink:href="#m04962335d2" y="207.458846"/>
     <use style="fill:#cd5c5c;fill-opacity:0.8;stroke:#cd5c5c;stroke-opacity:0.8;" x="200.054777" xlink:href="#m04962335d2" y="292.44188"/>
     <use style="fill:#cd5c5c;fill-opacity:0.8;stroke:#cd5c5c;stroke-opacity:0.8;" x="196.45878" xlink:href="#m04962335d2" y="193.961542"/>
     <use style="fill:#cd5c5c;fill-opacity:0.8;stroke:#cd5c5c;stroke-opacity:0.8;" x="195.167338" xlink:href="#m04962335d2" y="157.829558"/>
     <use style="fill:#cd5c5c;fill-opacity:0.8;stroke:#cd5c5c;stroke-opacity:0.8;" x="194.436847" xlink:href="#m04962335d2" y="221.226868"/>
     <use style="fill:#cd5c5c;fill-opacity:0.8;stroke:#cd5c5c;stroke-opacity:0.8;" x="196.244718" xlink:href="#m04962335d2" y="139.144494"/>
     <use style="fill:#cd5c5c;fill-opacity:0.8;stroke:#cd5c5c;stroke-opacity:0.8;" x="196.278608" xlink:href="#m04962335d2" y="194.839851"/>
     <use style="fill:#cd5c5c;fill-opacity:0.8;stroke:#cd5c5c;stroke-opacity:0.8;" x="238.679644" xlink:href="#m04962335d2" y="157.800015"/>
     <use style="fill:#cd5c5c;fill-opacity:0.8;stroke:#cd5c5c;stroke-opacity:0.8;" x="234.622974" xlink:href="#m04962335d2" y="208.968807"/>
     <use style="fill:#cd5c5c;fill-opacity:0.8;stroke:#cd5c5c;stroke-opacity:0.8;" x="238.236932" xlink:href="#m04962335d2" y="256.233004"/>
     <use style="fill:#cd5c5c;fill-opacity:0.8;stroke:#cd5c5c;stroke-opacity:0.8;" x="238.066229" xlink:href="#m04962335d2" y="218.450897"/>
     <use style="fill:#cd5c5c;fill-opacity:0.8;stroke:#cd5c5c;stroke-opacity:0.8;" x="237.396676" xlink:href="#m04962335d2" y="209.391066"/>
     <use style="fill:#cd5c5c;fill-opacity:0.8;stroke:#cd5c5c;stroke-opacity:0.8;" x="239.671521" xlink:href="#m04962335d2" y="239.016451"/>
     <use style="fill:#cd5c5c;fill-opacity:0.8;stroke:#cd5c5c;stroke-opacity:0.8;" x="233.516266" xlink:href="#m04962335d2" y="146.602037"/>
     <use style="fill:#cd5c5c;fill-opacity:0.8;stroke:#cd5c5c;stroke-opacity:0.8;" x="234.05707" xlink:href="#m04962335d2" y="207.915394"/>
     <use style="fill:#cd5c5c;fill-opacity:0.8;stroke:#cd5c5c;stroke-opacity:0.8;" x="236.723214" xlink:href="#m04962335d2" y="233.63905"/>
     <use style="fill:#cd5c5c;fill-opacity:0.8;stroke:#cd5c5c;stroke-opacity:0.8;" x="233.300729" xlink:href="#m04962335d2" y="218.043031"/>
     <use style="fill:#cd5c5c;fill-opacity:0.8;stroke:#cd5c5c;stroke-opacity:0.8;" x="237.62887" xlink:href="#m04962335d2" y="151.529266"/>
     <use style="fill:#cd5c5c;fill-opacity:0.8;stroke:#cd5c5c;stroke-opacity:0.8;" x="234.255238" xlink:href="#m04962335d2" y="196.653617"/>
     <use style="fill:#cd5c5c;fill-opacity:0.8;stroke:#cd5c5c;stroke-opacity:0.8;" x="237.646569" xlink:href="#m04962335d2" y="268.252862"/>
     <use style="fill:#cd5c5c;fill-opacity:0.8;stroke:#cd5c5c;stroke-opacity:0.8;" x="234.837988" xlink:href="#m04962335d2" y="186.153601"/>
     <use style="fill:#cd5c5c;fill-opacity:0.8;stroke:#cd5c5c;stroke-opacity:0.8;" x="236.580694" xlink:href="#m04962335d2" y="147.690741"/>
     <use style="fill:#cd5c5c;fill-opacity:0.8;stroke:#cd5c5c;stroke-opacity:0.8;" x="239.187855" xlink:href="#m04962335d2" y="185.879698"/>
     <use style="fill:#cd5c5c;fill-opacity:0.8;stroke:#cd5c5c;stroke-opacity:0.8;" x="234.774327" xlink:href="#m04962335d2" y="77.84012"/>
     <use style="fill:#cd5c5c;fill-opacity:0.8;stroke:#cd5c5c;stroke-opacity:0.8;" x="236.128743" xlink:href="#m04962335d2" y="207.230799"/>
     <use style="fill:#cd5c5c;fill-opacity:0.8;stroke:#cd5c5c;stroke-opacity:0.8;" x="275.028304" xlink:href="#m04962335d2" y="81.343843"/>
     <use style="fill:#cd5c5c;fill-opacity:0.8;stroke:#cd5c5c;stroke-opacity:0.8;" x="273.362957" xlink:href="#m04962335d2" y="190.271835"/>
     <use style="fill:#cd5c5c;fill-opacity:0.8;stroke:#cd5c5c;stroke-opacity:0.8;" x="274.266667" xlink:href="#m04962335d2" y="242.432885"/>
     <use style="fill:#cd5c5c;fill-opacity:0.8;stroke:#cd5c5c;stroke-opacity:0.8;" x="277.241513" xlink:href="#m04962335d2" y="221.282813"/>
     <use style="fill:#cd5c5c;fill-opacity:0.8;stroke:#cd5c5c;stroke-opacity:0.8;" x="272.587379" xlink:href="#m04962335d2" y="192.595892"/>
     <use style="fill:#cd5c5c;fill-opacity:0.8;stroke:#cd5c5c;stroke-opacity:0.8;" x="272.683584" xlink:href="#m04962335d2" y="219.256485"/>
     <use style="fill:#cd5c5c;fill-opacity:0.8;stroke:#cd5c5c;stroke-opacity:0.8;" x="279.460581" xlink:href="#m04962335d2" y="144.571439"/>
     <use style="fill:#cd5c5c;fill-opacity:0.8;stroke:#cd5c5c;stroke-opacity:0.8;" x="273.757904" xlink:href="#m04962335d2" y="210.120309"/>
     <use style="fill:#cd5c5c;fill-opacity:0.8;stroke:#cd5c5c;stroke-opacity:0.8;" x="276.926361" xlink:href="#m04962335d2" y="243.792737"/>
     <use style="fill:#cd5c5c;fill-opacity:0.8;stroke:#cd5c5c;stroke-opacity:0.8;" x="278.836622" xlink:href="#m04962335d2" y="249.358565"/>
     <use style="fill:#cd5c5c;fill-opacity:0.8;stroke:#cd5c5c;stroke-opacity:0.8;" x="273.786331" xlink:href="#m04962335d2" y="123.310558"/>
     <use style="fill:#cd5c5c;fill-opacity:0.8;stroke:#cd5c5c;stroke-opacity:0.8;" x="272.977975" xlink:href="#m04962335d2" y="200.960998"/>
     <use style="fill:#cd5c5c;fill-opacity:0.8;stroke:#cd5c5c;stroke-opacity:0.8;" x="274.956187" xlink:href="#m04962335d2" y="271.488552"/>
     <use style="fill:#cd5c5c;fill-opacity:0.8;stroke:#cd5c5c;stroke-opacity:0.8;" x="274.231036" xlink:href="#m04962335d2" y="161.793307"/>
     <use style="fill:#cd5c5c;fill-opacity:0.8;stroke:#cd5c5c;stroke-opacity:0.8;" x="279.509403" xlink:href="#m04962335d2" y="165.003987"/>
     <use style="fill:#cd5c5c;fill-opacity:0.8;stroke:#cd5c5c;stroke-opacity:0.8;" x="271.968005" xlink:href="#m04962335d2" y="174.388065"/>
     <use style="fill:#cd5c5c;fill-opacity:0.8;stroke:#cd5c5c;stroke-opacity:0.8;" x="277.964259" xlink:href="#m04962335d2" y="93.49673"/>
     <use style="fill:#cd5c5c;fill-opacity:0.8;stroke:#cd5c5c;stroke-opacity:0.8;" x="276.178742" xlink:href="#m04962335d2" y="195.737483"/>
     <use style="fill:#cd5c5c;fill-opacity:0.8;stroke:#cd5c5c;stroke-opacity:0.8;" x="315.106111" xlink:href="#m04962335d2" y="161.426415"/>
     <use style="fill:#cd5c5c;fill-opacity:0.8;stroke:#cd5c5c;stroke-opacity:0.8;" x="315.32485" xlink:href="#m04962335d2" y="208.144739"/>
     <use style="fill:#cd5c5c;fill-opacity:0.8;stroke:#cd5c5c;stroke-opacity:0.8;" x="314.299164" xlink:href="#m04962335d2" y="251.862886"/>
     <use style="fill:#cd5c5c;fill-opacity:0.8;stroke:#cd5c5c;stroke-opacity:0.8;" x="312.562866" xlink:href="#m04962335d2" y="154.533516"/>
     <use style="fill:#cd5c5c;fill-opacity:0.8;stroke:#cd5c5c;stroke-opacity:0.8;" x="315.098623" xlink:href="#m04962335d2" y="170.805545"/>
     <use style="fill:#cd5c5c;fill-opacity:0.8;stroke:#cd5c5c;stroke-opacity:0.8;" x="311.892655" xlink:href="#m04962335d2" y="246.903362"/>
     <use style="fill:#cd5c5c;fill-opacity:0.8;stroke:#cd5c5c;stroke-opacity:0.8;" x="312.450158" xlink:href="#m04962335d2" y="92.602574"/>
     <use style="fill:#cd5c5c;fill-opacity:0.8;stroke:#cd5c5c;stroke-opacity:0.8;" x="313.366423" xlink:href="#m04962335d2" y="217.980077"/>
     <use style="fill:#cd5c5c;fill-opacity:0.8;stroke:#cd5c5c;stroke-opacity:0.8;" x="318.90101" xlink:href="#m04962335d2" y="223.308676"/>
     <use style="fill:#cd5c5c;fill-opacity:0.8;stroke:#cd5c5c;stroke-opacity:0.8;" x="311.345903" xlink:href="#m04962335d2" y="218.801301"/>
     <use style="fill:#cd5c5c;fill-opacity:0.8;stroke:#cd5c5c;stroke-opacity:0.8;" x="312.73002" xlink:href="#m04962335d2" y="96.618961"/>
     <use style="fill:#cd5c5c;fill-opacity:0.8;stroke:#cd5c5c;stroke-opacity:0.8;" x="313.738638" xlink:href="#m04962335d2" y="175.672217"/>
     <use style="fill:#cd5c5c;fill-opacity:0.8;stroke:#cd5c5c;stroke-opacity:0.8;" x="311.883777" xlink:href="#m04962335d2" y="247.267048"/>
     <use style="fill:#cd5c5c;fill-opacity:0.8;stroke:#cd5c5c;stroke-opacity:0.8;" x="316.859808" xlink:href="#m04962335d2" y="118.469599"/>
     <use style="fill:#cd5c5c;fill-opacity:0.8;stroke:#cd5c5c;stroke-opacity:0.8;" x="317.498812" xlink:href="#m04962335d2" y="131.442893"/>
     <use style="fill:#cd5c5c;fill-opacity:0.8;stroke:#cd5c5c;stroke-opacity:0.8;" x="318.939511" xlink:href="#m04962335d2" y="211.691501"/>
     <use style="fill:#cd5c5c;fill-opacity:0.8;stroke:#cd5c5c;stroke-opacity:0.8;" x="311.831234" xlink:href="#m04962335d2" y="99.301127"/>
     <use style="fill:#cd5c5c;fill-opacity:0.8;stroke:#cd5c5c;stroke-opacity:0.8;" x="311.311313" xlink:href="#m04962335d2" y="176.849"/>
     <use style="fill:#cd5c5c;fill-opacity:0.8;stroke:#cd5c5c;stroke-opacity:0.8;" x="353.98241" xlink:href="#m04962335d2" y="94.538595"/>
     <use style="fill:#cd5c5c;fill-opacity:0.8;stroke:#cd5c5c;stroke-opacity:0.8;" x="351.027512" xlink:href="#m04962335d2" y="243.341787"/>
     <use style="fill:#cd5c5c;fill-opacity:0.8;stroke:#cd5c5c;stroke-opacity:0.8;" x="356.640716" xlink:href="#m04962335d2" y="215.170995"/>
     <use style="fill:#cd5c5c;fill-opacity:0.8;stroke:#cd5c5c;stroke-opacity:0.8;" x="353.280338" xlink:href="#m04962335d2" y="198.333118"/>
     <use style="fill:#cd5c5c;fill-opacity:0.8;stroke:#cd5c5c;stroke-opacity:0.8;" x="354.012167" xlink:href="#m04962335d2" y="160.499356"/>
     <use style="fill:#cd5c5c;fill-opacity:0.8;stroke:#cd5c5c;stroke-opacity:0.8;" x="355.051992" xlink:href="#m04962335d2" y="241.583845"/>
     <use style="fill:#cd5c5c;fill-opacity:0.8;stroke:#cd5c5c;stroke-opacity:0.8;" x="354.619942" xlink:href="#m04962335d2" y="135.696199"/>
     <use style="fill:#cd5c5c;fill-opacity:0.8;stroke:#cd5c5c;stroke-opacity:0.8;" x="354.560434" xlink:href="#m04962335d2" y="213.785449"/>
     <use style="fill:#cd5c5c;fill-opacity:0.8;stroke:#cd5c5c;stroke-opacity:0.8;" x="356.094915" xlink:href="#m04962335d2" y="229.86169"/>
     <use style="fill:#cd5c5c;fill-opacity:0.8;stroke:#cd5c5c;stroke-opacity:0.8;" x="356.924958" xlink:href="#m04962335d2" y="188.982958"/>
     <use style="fill:#cd5c5c;fill-opacity:0.8;stroke:#cd5c5c;stroke-opacity:0.8;" x="358.619641" xlink:href="#m04962335d2" y="67.594132"/>
     <use style="fill:#cd5c5c;fill-opacity:0.8;stroke:#cd5c5c;stroke-opacity:0.8;" x="356.264121" xlink:href="#m04962335d2" y="173.887715"/>
     <use style="fill:#cd5c5c;fill-opacity:0.8;stroke:#cd5c5c;stroke-opacity:0.8;" x="358.224712" xlink:href="#m04962335d2" y="280.120793"/>
     <use style="fill:#cd5c5c;fill-opacity:0.8;stroke:#cd5c5c;stroke-opacity:0.8;" x="356.514347" xlink:href="#m04962335d2" y="159.793139"/>
     <use style="fill:#cd5c5c;fill-opacity:0.8;stroke:#cd5c5c;stroke-opacity:0.8;" x="351.783433" xlink:href="#m04962335d2" y="158.364918"/>
     <use style="fill:#cd5c5c;fill-opacity:0.8;stroke:#cd5c5c;stroke-opacity:0.8;" x="357.258531" xlink:href="#m04962335d2" y="218.870482"/>
     <use style="fill:#cd5c5c;fill-opacity:0.8;stroke:#cd5c5c;stroke-opacity:0.8;" x="358.548292" xlink:href="#m04962335d2" y="108.738123"/>
     <use style="fill:#cd5c5c;fill-opacity:0.8;stroke:#cd5c5c;stroke-opacity:0.8;" x="352.537226" xlink:href="#m04962335d2" y="163.315822"/>
     <use style="fill:#cd5c5c;fill-opacity:0.8;stroke:#cd5c5c;stroke-opacity:0.8;" x="391.864057" xlink:href="#m04962335d2" y="92.549711"/>
     <use style="fill:#cd5c5c;fill-opacity:0.8;stroke:#cd5c5c;stroke-opacity:0.8;" x="390.737343" xlink:href="#m04962335d2" y="220.148053"/>
     <use style="fill:#cd5c5c;fill-opacity:0.8;stroke:#cd5c5c;stroke-opacity:0.8;" x="391.050045" xlink:href="#m04962335d2" y="205.015651"/>
     <use style="fill:#cd5c5c;fill-opacity:0.8;stroke:#cd5c5c;stroke-opacity:0.8;" x="392.111749" xlink:href="#m04962335d2" y="176.83064"/>
     <use style="fill:#cd5c5c;fill-opacity:0.8;stroke:#cd5c5c;stroke-opacity:0.8;" x="392.744556" xlink:href="#m04962335d2" y="129.556926"/>
     <use style="fill:#cd5c5c;fill-opacity:0.8;stroke:#cd5c5c;stroke-opacity:0.8;" x="392.46443" xlink:href="#m04962335d2" y="249.145084"/>
     <use style="fill:#cd5c5c;fill-opacity:0.8;stroke:#cd5c5c;stroke-opacity:0.8;" x="394.532889" xlink:href="#m04962335d2" y="65.511119"/>
     <use style="fill:#cd5c5c;fill-opacity:0.8;stroke:#cd5c5c;stroke-opacity:0.8;" x="394.774185" xlink:href="#m04962335d2" y="208.228643"/>
     <use style="fill:#cd5c5c;fill-opacity:0.8;stroke:#cd5c5c;stroke-opacity:0.8;" x="390.70727" xlink:href="#m04962335d2" y="234.240663"/>
     <use style="fill:#cd5c5c;fill-opacity:0.8;stroke:#cd5c5c;stroke-opacity:0.8;" x="398.247991" xlink:href="#m04962335d2" y="207.227994"/>
     <use style="fill:#cd5c5c;fill-opacity:0.8;stroke:#cd5c5c;stroke-opacity:0.8;" x="397.508916" xlink:href="#m04962335d2" y="56.61412"/>
     <use style="fill:#cd5c5c;fill-opacity:0.8;stroke:#cd5c5c;stroke-opacity:0.8;" x="390.735983" xlink:href="#m04962335d2" y="166.717326"/>
     <use style="fill:#cd5c5c;fill-opacity:0.8;stroke:#cd5c5c;stroke-opacity:0.8;" x="391.264169" xlink:href="#m04962335d2" y="266.134914"/>
     <use style="fill:#cd5c5c;fill-opacity:0.8;stroke:#cd5c5c;stroke-opacity:0.8;" x="396.358997" xlink:href="#m04962335d2" y="105.55799"/>
     <use style="fill:#cd5c5c;fill-opacity:0.8;stroke:#cd5c5c;stroke-opacity:0.8;" x="395.419458" xlink:href="#m04962335d2" y="145.762764"/>
     <use style="fill:#cd5c5c;fill-opacity:0.8;stroke:#cd5c5c;stroke-opacity:0.8;" x="393.139914" xlink:href="#m04962335d2" y="225.166345"/>
     <use style="fill:#cd5c5c;fill-opacity:0.8;stroke:#cd5c5c;stroke-opacity:0.8;" x="391.031368" xlink:href="#m04962335d2" y="131.147155"/>
     <use style="fill:#cd5c5c;fill-opacity:0.8;stroke:#cd5c5c;stroke-opacity:0.8;" x="392.483227" xlink:href="#m04962335d2" y="170.949982"/>
    </g>
   </g>
   <g id="PolyCollection_1">
    <defs>
     <path d="M 57.6 -145.796578 
L 57.6 -118.41907 
L 61.207273 -119.131249 
L 64.814545 -119.784872 
L 68.421818 -120.516393 
L 72.029091 -121.288453 
L 75.636364 -122.061561 
L 79.243636 -122.751441 
L 82.850909 -123.497437 
L 86.458182 -124.264688 
L 90.065455 -124.919732 
L 93.672727 -125.539064 
L 97.28 -126.210972 
L 100.887273 -126.877734 
L 104.494545 -127.382815 
L 108.101818 -127.87191 
L 111.709091 -128.517927 
L 115.316364 -129.214772 
L 118.923636 -129.782882 
L 122.530909 -130.345189 
L 126.138182 -130.908891 
L 129.745455 -131.509428 
L 133.352727 -132.165033 
L 136.96 -132.814925 
L 140.567273 -133.467713 
L 144.174545 -134.058941 
L 147.781818 -134.544 
L 151.389091 -135.189862 
L 154.996364 -135.793292 
L 158.603636 -136.342327 
L 162.210909 -136.881458 
L 165.818182 -137.451365 
L 169.425455 -137.991909 
L 173.032727 -138.547539 
L 176.64 -139.039117 
L 180.247273 -139.432489 
L 183.854545 -139.898903 
L 187.461818 -140.487867 
L 191.069091 -141.154117 
L 194.676364 -141.581049 
L 198.283636 -142.139334 
L 201.890909 -142.611461 
L 205.498182 -143.031684 
L 209.105455 -143.456217 
L 212.712727 -143.917765 
L 216.32 -144.469664 
L 219.927273 -144.971734 
L 223.534545 -145.312876 
L 227.141818 -145.817082 
L 230.749091 -146.222322 
L 234.356364 -146.518891 
L 237.963636 -146.903088 
L 241.570909 -147.387052 
L 245.178182 -147.468088 
L 248.785455 -147.843997 
L 252.392727 -148.287526 
L 256 -148.62413 
L 259.607273 -149.15074 
L 263.214545 -149.618112 
L 266.821818 -149.981875 
L 270.429091 -150.33756 
L 274.036364 -150.659548 
L 277.643636 -150.996669 
L 281.250909 -151.33379 
L 284.858182 -151.670911 
L 288.465455 -152.008031 
L 292.072727 -152.29759 
L 295.68 -152.485263 
L 299.287273 -152.640861 
L 302.894545 -152.806726 
L 306.501818 -153.015337 
L 310.109091 -153.229846 
L 313.716364 -153.485216 
L 317.323636 -153.832427 
L 320.930909 -154.179637 
L 324.538182 -154.371992 
L 328.145455 -154.582086 
L 331.752727 -154.755296 
L 335.36 -154.928505 
L 338.967273 -155.077305 
L 342.574545 -155.274925 
L 346.181818 -155.493479 
L 349.789091 -155.956838 
L 353.396364 -156.110145 
L 357.003636 -156.263452 
L 360.610909 -156.477413 
L 364.218182 -156.760368 
L 367.825455 -157.019065 
L 371.432727 -157.245298 
L 375.04 -157.54803 
L 378.647273 -157.765899 
L 382.254545 -157.983768 
L 385.861818 -158.201637 
L 389.469091 -158.421822 
L 393.076364 -158.642137 
L 396.683636 -158.862453 
L 400.290909 -159.082769 
L 403.898182 -159.303085 
L 407.505455 -159.521558 
L 411.112727 -159.737858 
L 414.72 -159.954159 
L 414.72 -194.86611 
L 414.72 -194.86611 
L 411.112727 -194.07767 
L 407.505455 -193.318325 
L 403.898182 -192.565691 
L 400.290909 -191.760699 
L 396.683636 -191.021669 
L 393.076364 -190.335879 
L 389.469091 -189.628335 
L 385.861818 -188.917232 
L 382.254545 -188.206755 
L 378.647273 -187.579576 
L 375.04 -186.837123 
L 371.432727 -186.072819 
L 367.825455 -185.373814 
L 364.218182 -184.725095 
L 360.610909 -184.076375 
L 357.003636 -183.427655 
L 353.396364 -182.778936 
L 349.789091 -182.114712 
L 346.181818 -181.430522 
L 342.574545 -180.745943 
L 338.967273 -180.059949 
L 335.36 -179.373956 
L 331.752727 -178.688846 
L 328.145455 -177.981544 
L 324.538182 -177.318858 
L 320.930909 -176.634778 
L 317.323636 -175.952319 
L 313.716364 -175.265924 
L 310.109091 -174.628776 
L 306.501818 -174.010248 
L 302.894545 -173.393028 
L 299.287273 -172.911329 
L 295.68 -172.298399 
L 292.072727 -171.7285 
L 288.465455 -171.000882 
L 284.858182 -170.39598 
L 281.250909 -169.72185 
L 277.643636 -169.089134 
L 274.036364 -168.446107 
L 270.429091 -167.879836 
L 266.821818 -167.235608 
L 263.214545 -166.677325 
L 259.607273 -166.174153 
L 256 -165.697994 
L 252.392727 -165.216119 
L 248.785455 -164.680747 
L 245.178182 -164.100113 
L 241.570909 -163.520858 
L 237.963636 -163.063261 
L 234.356364 -162.547938 
L 230.749091 -161.944362 
L 227.141818 -161.463192 
L 223.534545 -160.978806 
L 219.927273 -160.559727 
L 216.32 -160.136714 
L 212.712727 -159.716988 
L 209.105455 -159.309696 
L 205.498182 -158.877607 
L 201.890909 -158.456612 
L 198.283636 -158.021796 
L 194.676364 -157.547476 
L 191.069091 -157.072533 
L 187.461818 -156.597589 
L 183.854545 -156.240597 
L 180.247273 -155.749423 
L 176.64 -155.33353 
L 173.032727 -154.883978 
L 169.425455 -154.513969 
L 165.818182 -154.184124 
L 162.210909 -153.839543 
L 158.603636 -153.444531 
L 154.996364 -153.18947 
L 151.389091 -152.875123 
L 147.781818 -152.554698 
L 144.174545 -152.220211 
L 140.567273 -151.895728 
L 136.96 -151.841662 
L 133.352727 -151.478219 
L 129.745455 -151.039009 
L 126.138182 -150.805665 
L 122.530909 -150.591972 
L 118.923636 -150.235781 
L 115.316364 -149.896515 
L 111.709091 -149.674946 
L 108.101818 -149.296196 
L 104.494545 -148.996439 
L 100.887273 -148.745409 
L 97.28 -148.498647 
L 93.672727 -148.247441 
L 90.065455 -147.947616 
L 86.458182 -147.648038 
L 82.850909 -147.490051 
L 79.243636 -147.254071 
L 75.636364 -147.004712 
L 72.029091 -146.755353 
L 68.421818 -146.505994 
L 64.814545 -146.25908 
L 61.207273 -146.028645 
L 57.6 -145.796578 
z
" id="mb485304fe7" style="stroke:#ffffff;stroke-opacity:0.15;"/>
    </defs>
    <g clip-path="url(#pf8e87c27b1)">
     <use style="fill:#cd5c5c;fill-opacity:0.15;stroke:#ffffff;stroke-opacity:0.15;" x="0" xlink:href="#mb485304fe7" y="345.6"/>
    </g>
   </g>
   <g id="line2d_13">
    <path clip-path="url(#pf8e87c27b1)" d="M 57.6 214.125264 
L 61.207273 213.65864 
L 64.814545 213.192017 
L 68.421818 212.725393 
L 72.029091 212.25877 
L 75.636364 211.792147 
L 79.243636 211.325523 
L 82.850909 210.8589 
L 86.458182 210.392276 
L 90.065455 209.925653 
L 93.672727 209.45903 
L 97.28 208.992406 
L 100.887273 208.525783 
L 104.494545 208.059159 
L 108.101818 207.592536 
L 111.709091 207.125913 
L 115.316364 206.659289 
L 118.923636 206.192666 
L 122.530909 205.726043 
L 126.138182 205.259419 
L 129.745455 204.792796 
L 133.352727 204.326172 
L 136.96 203.859549 
L 140.567273 203.392926 
L 144.174545 202.926302 
L 147.781818 202.459679 
L 151.389091 201.993055 
L 154.996364 201.526432 
L 158.603636 201.059809 
L 162.210909 200.593185 
L 165.818182 200.126562 
L 169.425455 199.659938 
L 173.032727 199.193315 
L 176.64 198.726692 
L 180.247273 198.260068 
L 183.854545 197.793445 
L 187.461818 197.326821 
L 191.069091 196.860198 
L 194.676364 196.393575 
L 198.283636 195.926951 
L 201.890909 195.460328 
L 205.498182 194.993705 
L 209.105455 194.527081 
L 212.712727 194.060458 
L 216.32 193.593834 
L 219.927273 193.127211 
L 223.534545 192.660588 
L 227.141818 192.193964 
L 230.749091 191.727341 
L 234.356364 191.260717 
L 237.963636 190.794094 
L 241.570909 190.327471 
L 245.178182 189.860847 
L 248.785455 189.394224 
L 252.392727 188.9276 
L 256 188.460977 
L 259.607273 187.994354 
L 263.214545 187.52773 
L 266.821818 187.061107 
L 270.429091 186.594484 
L 274.036364 186.12786 
L 277.643636 185.661237 
L 281.250909 185.194613 
L 284.858182 184.72799 
L 288.465455 184.261367 
L 292.072727 183.794743 
L 295.68 183.32812 
L 299.287273 182.861496 
L 302.894545 182.394873 
L 306.501818 181.92825 
L 310.109091 181.461626 
L 313.716364 180.995003 
L 317.323636 180.528379 
L 320.930909 180.061756 
L 324.538182 179.595133 
L 328.145455 179.128509 
L 331.752727 178.661886 
L 335.36 178.195262 
L 338.967273 177.728639 
L 342.574545 177.262016 
L 346.181818 176.795392 
L 349.789091 176.328769 
L 353.396364 175.862146 
L 357.003636 175.395522 
L 360.610909 174.928899 
L 364.218182 174.462275 
L 367.825455 173.995652 
L 371.432727 173.529029 
L 375.04 173.062405 
L 378.647273 172.595782 
L 382.254545 172.129158 
L 385.861818 171.662535 
L 389.469091 171.195912 
L 393.076364 170.729288 
L 396.683636 170.262665 
L 400.290909 169.796041 
L 403.898182 169.329418 
L 407.505455 168.862795 
L 411.112727 168.396171 
L 414.72 167.929548 
" style="fill:none;stroke:#cd5c5c;stroke-linecap:round;stroke-width:2.25;"/>
   </g>
   <g id="patch_3">
    <path d="M 57.6 307.584 
L 57.6 41.472 
" style="fill:none;stroke:#cccccc;stroke-linecap:square;stroke-linejoin:miter;stroke-width:0.8;"/>
   </g>
   <g id="patch_4">
    <path d="M 414.72 307.584 
L 414.72 41.472 
" style="fill:none;stroke:#cccccc;stroke-linecap:square;stroke-linejoin:miter;stroke-width:0.8;"/>
   </g>
   <g id="patch_5">
    <path d="M 57.6 307.584 
L 414.72 307.584 
" style="fill:none;stroke:#cccccc;stroke-linecap:square;stroke-linejoin:miter;stroke-width:0.8;"/>
   </g>
   <g id="patch_6">
    <path d="M 57.6 41.472 
L 414.72 41.472 
" style="fill:none;stroke:#cccccc;stroke-linecap:square;stroke-linejoin:miter;stroke-width:0.8;"/>
   </g>
   <g id="text_15">
    <!-- Beta power over P123 scl, per pax -->
    <defs>
     <path d="M 7.328125 0 
L 7.328125 71.578125 
L 34.1875 71.578125 
Q 42.390625 71.578125 47.34375 69.40625 
Q 52.296875 67.234375 55.09375 62.71875 
Q 57.90625 58.203125 57.90625 53.265625 
Q 57.90625 48.6875 55.421875 44.625 
Q 52.9375 40.578125 47.90625 38.09375 
Q 54.390625 36.1875 57.875 31.59375 
Q 61.375 27 61.375 20.75 
Q 61.375 15.71875 59.25 11.390625 
Q 57.125 7.078125 54 4.734375 
Q 50.875 2.390625 46.15625 1.1875 
Q 41.453125 0 34.625 0 
z
M 16.796875 41.5 
L 32.28125 41.5 
Q 38.578125 41.5 41.3125 42.328125 
Q 44.921875 43.40625 46.75 45.890625 
Q 48.578125 48.390625 48.578125 52.15625 
Q 48.578125 55.71875 46.875 58.421875 
Q 45.171875 61.140625 41.984375 62.140625 
Q 38.8125 63.140625 31.109375 63.140625 
L 16.796875 63.140625 
z
M 16.796875 8.453125 
L 34.625 8.453125 
Q 39.203125 8.453125 41.0625 8.796875 
Q 44.34375 9.375 46.53125 10.734375 
Q 48.734375 12.109375 50.140625 14.71875 
Q 51.5625 17.328125 51.5625 20.75 
Q 51.5625 24.75 49.515625 27.703125 
Q 47.46875 30.671875 43.828125 31.859375 
Q 40.1875 33.0625 33.34375 33.0625 
L 16.796875 33.0625 
z
" id="ArialMT-66"/>
     <path d="M 8.890625 0 
L 8.890625 10.015625 
L 18.890625 10.015625 
L 18.890625 0 
Q 18.890625 -5.515625 16.9375 -8.90625 
Q 14.984375 -12.3125 10.75 -14.15625 
L 8.296875 -10.40625 
Q 11.078125 -9.1875 12.390625 -6.8125 
Q 13.71875 -4.4375 13.875 0 
z
" id="ArialMT-44"/>
    </defs>
    <g style="fill:#262626;" transform="translate(144.449062 35.472)scale(0.12 -0.12)">
     <use xlink:href="#ArialMT-66"/>
     <use x="66.699219" xlink:href="#ArialMT-101"/>
     <use x="122.314453" xlink:href="#ArialMT-116"/>
     <use x="150.097656" xlink:href="#ArialMT-97"/>
     <use x="205.712891" xlink:href="#ArialMT-32"/>
     <use x="233.496094" xlink:href="#ArialMT-112"/>
     <use x="289.111328" xlink:href="#ArialMT-111"/>
     <use x="344.726562" xlink:href="#ArialMT-119"/>
     <use x="416.943359" xlink:href="#ArialMT-101"/>
     <use x="472.558594" xlink:href="#ArialMT-114"/>
     <use x="505.859375" xlink:href="#ArialMT-32"/>
     <use x="533.642578" xlink:href="#ArialMT-111"/>
     <use x="589.257812" xlink:href="#ArialMT-118"/>
     <use x="639.257812" xlink:href="#ArialMT-101"/>
     <use x="694.873047" xlink:href="#ArialMT-114"/>
     <use x="728.173828" xlink:href="#ArialMT-32"/>
     <use x="755.957031" xlink:href="#ArialMT-80"/>
     <use x="822.65625" xlink:href="#ArialMT-49"/>
     <use x="878.271484" xlink:href="#ArialMT-50"/>
     <use x="933.886719" xlink:href="#ArialMT-51"/>
     <use x="989.501953" xlink:href="#ArialMT-32"/>
     <use x="1017.285156" xlink:href="#ArialMT-115"/>
     <use x="1067.285156" xlink:href="#ArialMT-99"/>
     <use x="1117.285156" xlink:href="#ArialMT-108"/>
     <use x="1139.501953" xlink:href="#ArialMT-44"/>
     <use x="1167.285156" xlink:href="#ArialMT-32"/>
     <use x="1195.068359" xlink:href="#ArialMT-112"/>
     <use x="1250.683594" xlink:href="#ArialMT-101"/>
     <use x="1306.298828" xlink:href="#ArialMT-114"/>
     <use x="1339.599609" xlink:href="#ArialMT-32"/>
     <use x="1367.382812" xlink:href="#ArialMT-112"/>
     <use x="1422.998047" xlink:href="#ArialMT-97"/>
     <use x="1478.613281" xlink:href="#ArialMT-120"/>
    </g>
   </g>
   <g id="legend_1"/>
  </g>
 </g>
 <defs>
  <clipPath id="pf8e87c27b1">
   <rect height="266.112" width="357.12" x="57.6" y="41.472"/>
  </clipPath>
 </defs>
</svg>
